<?xml version="1.0" standalone="no"?>

<!DOCTYPE svg PUBLIC "-//W3C//DTD SVG 20010904//EN"

 "http://www.w3.org/TR/2001/REC-SVG-20010904/DTD/svg10.dtd">

<svg version="1.0" xmlns="http://www.w3.org/2000/svg"

 width="372.000000pt" height="48.000000pt" viewBox="0 0 372.000000 48.000000"

 preserveAspectRatio="xMidYMid meet">

<path fill="#f3f5f3" stroke="none" d="
M0 24

L0 0

L186 0

L372 0

L372 24

L372 48

L186 48

L0 48

L0 24

Z

"/>

<path fill="#2a2727" stroke="none" d="
M17 47

C16 46 16 43 17 43

C18 43 18 31 17 29

C16 29 16 27 16 27

C17 25 23 24 23 26

C24 27 24 27 25 26

C26 24 29 25 29 28

C29 30 27 32 26 30

C24 28 23 29 23 36

C23 42 23 43 25 43

C26 43 26 44 26 45

C26 47 25 48 21 48

C19 48 17 48 17 47

Z

M34 47

C32 45 31 44 31 38

C31 33 31 30 32 28

C34 25 37 24 39 26

C40 27 41 27 41 26

C42 25 43 25 45 25

L48 25

L48 36

L48 47

L44 47

C41 47 39 47 38 47

C36 48 35 47 34 47

Z

M42 37

C42 33 42 31 41 30

C38 28 36 30 36 36

C36 41 37 43 39 43

C41 43 42 42 42 37

Z

M109 46

C107 45 107 43 107 37

C107 33 107 30 106 30

C105 29 105 28 105 27

C105 25 106 25 108 25

L112 25

L112 34

C112 42 113 43 115 43

L117 43

L117 34

L116 25

L119 25

L122 25

L122 34

C122 39 122 43 123 43

C124 43 124 44 124 45

C124 47 124 47 119 47

C117 46 115 47 114 47

C114 49 110 48 109 46

Z

M128 37

L128 25

L130 25

C132 25 133 26 133 26

C134 27 134 27 135 26

C137 25 139 25 139 27

C140 29 137 32 136 30

C134 28 133 29 133 36

C133 42 133 43 135 43

C135 43 136 44 136 46

C136 48 136 48 132 48

L128 48

L128 37

Z

M158 47

C155 46 154 44 154 36

C154 27 156 25 162 25

C167 25 169 27 169 33

L169 38

L164 38

C160 38 159 38 159 40

C159 41 160 42 161 43

C162 44 162 44 163 43

C165 40 169 40 169 43

C169 47 163 49 158 47

Z

M164 33

C164 30 162 28 160 30

C158 32 159 35 162 35

C163 35 164 34 164 33

Z

M217 47

C215 46 214 43 214 32

L213 25

L216 25

L219 25

L219 34

C219 42 220 43 222 43

C224 43 225 42 225 36

C225 32 225 30 224 30

C223 30 223 29 223 28

C223 25 223 25 227 25

L230 25

L230 33

C230 37 230 42 231 44

L231 47

L227 47

C224 47 222 47 221 47

C219 48 218 48 217 47

Z

M258 46

C255 44 255 29 258 27

C259 25 263 25 265 26

C266 27 266 26 266 21

L265 14

L268 14

L271 14

L271 29

C271 38 271 43 272 43

C273 43 273 44 273 45

C273 47 272 47 269 47

C266 47 263 47 262 48

C260 48 259 48 258 46

Z

M266 37

C266 30 265 29 263 30

C261 30 261 32 261 36

C261 42 261 43 264 43

C266 43 266 42 266 37

Z

M276 45

C276 41 278 40 281 43

C282 43 283 44 284 44

C286 42 285 40 281 38

C277 35 275 32 276 29

C276 26 276 26 283 25

C289 25 289 25 289 28

C289 30 289 31 287 31

C286 31 285 30 285 30

C284 28 281 29 281 31

C281 31 283 33 286 35

C289 38 290 39 290 41

C290 47 285 50 282 47

C282 46 281 46 281 47

C280 48 279 48 278 48

C276 48 276 47 276 45

Z

M296 47

C294 45 294 44 294 36

C294 31 294 27 295 26

C297 25 300 25 302 26

C302 27 303 27 303 26

C304 25 305 25 306 25

C308 25 308 26 308 30

C308 33 308 34 306 34

C305 34 304 33 303 32

C303 31 302 30 301 30

C300 30 299 31 299 36

C299 43 299 43 301 43

C302 43 303 42 304 42

C304 41 305 40 306 40

C308 40 309 44 307 46

C304 48 299 48 296 47

Z

M335 46

C333 44 333 43 333 37

C333 32 333 29 335 27

C336 25 340 24 342 26

C342 27 343 27 343 26

C344 25 345 25 347 25

L350 25

L350 36

L350 47

L346 47

C343 47 341 47 339 48

C338 48 337 48 335 46

Z

M343 41

C345 38 344 31 343 30

C340 28 338 31 338 36

C338 39 338 42 339 42

C340 44 343 43 343 41

Z

M357 47

C355 46 355 44 353 31

L353 25

L356 25

L359 25

L359 33

C359 41 360 43 363 43

C364 43 365 41 365 36

C365 32 365 30 364 30

C363 30 363 29 363 28

C363 25 363 25 367 25

L370 25

L370 33

C370 37 370 42 371 44

L371 47

L367 47

C364 47 362 47 361 47

C359 48 358 48 357 47

Z

M1 45

C1 44 1 43 2 43

C3 43 3 19 2 19

C1 18 1 17 1 16

C1 14 2 14 9 14

L17 14

L17 18

C17 21 17 21 15 21

C13 21 12 20 12 20

C12 19 11 18 10 18

C8 18 8 19 8 22

C8 25 8 25 11 25

C13 25 13 26 13 28

C13 30 13 30 11 30

C8 30 8 30 8 37

C8 40 8 43 9 43

C10 43 10 44 10 45

C10 47 9 47 6 47

C2 47 1 47 1 45

Z

M52 36

L52 25

L55 25

C56 25 58 25 59 26

C59 27 60 27 60 26

C62 24 66 25 67 27

C68 29 69 33 69 38

L70 47

L67 47

L64 47

L64 39

C64 33 64 31 63 30

C60 28 58 31 58 37

C58 40 58 43 59 43

C60 43 60 44 60 45

C60 47 59 47 56 47

L53 47

L52 36

Z

M74 31

L74 14

L76 14

L79 14

L79 23

C79 28 79 33 80 33

C81 35 83 32 82 28

L82 25

L86 25

C91 25 91 25 91 28

C91 29 90 30 90 30

C88 30 85 33 85 34

C85 35 86 35 87 35

C89 36 89 37 89 39

C89 41 89 43 90 43

C91 43 91 44 91 45

C91 47 90 47 88 47

C84 47 84 47 84 43

C84 38 84 38 82 38

C80 38 79 39 79 41

C79 42 79 43 80 43

C81 43 81 44 81 45

C81 47 80 47 77 47

L74 47

L74 31

Z

M94 45

C94 44 94 43 95 43

C96 43 96 40 96 37

C96 33 96 30 95 30

C94 30 94 29 94 28

C94 26 94 25 95 25

C95 25 96 23 96 20

C96 15 97 14 100 14

C102 14 103 14 103 16

C103 17 103 18 102 18

C102 18 101 24 101 31

C101 38 101 43 102 43

C103 43 103 44 103 45

C103 47 102 47 99 47

C95 47 94 47 94 45

Z

M141 45

C141 44 142 43 143 43

C144 43 144 42 144 37

C144 33 144 30 143 30

C142 30 142 29 142 28

C142 26 142 25 143 25

C144 25 144 23 144 21

C144 17 144 17 147 17

C149 17 149 16 149 36

L150 47

L145 47

C142 47 141 47 141 45

Z

M173 45

C173 44 173 43 174 43

C175 43 175 40 175 37

C175 33 175 30 174 30

C173 29 173 28 173 27

C173 25 174 25 176 25

C178 25 180 26 180 26

C181 27 181 27 182 26

C183 24 186 25 186 28

C186 30 184 32 183 30

C181 28 180 29 180 36

C180 40 180 43 181 43

C182 43 182 44 182 45

C182 47 181 47 178 47

C174 47 173 47 173 45

Z

M190 45

C190 44 190 43 191 43

C192 43 192 38 192 31

C192 23 192 18 191 18

C190 18 190 17 190 16

C190 14 191 14 197 14

C207 14 209 16 209 22

C209 25 209 27 207 28

C205 30 205 30 207 32

C208 33 209 35 209 37

C209 39 209 42 210 44

C210 47 210 47 207 47

L203 47

L203 40

C203 34 202 33 200 33

C197 33 197 33 197 38

C197 41 197 43 198 43

C199 43 199 44 199 45

C199 47 198 47 195 47

C191 47 190 47 190 45

Z

M201 28

C204 26 204 23 202 20

C199 16 197 18 197 23

C197 29 198 30 201 28

Z

M234 45

C234 44 234 43 235 43

C236 43 236 40 236 37

C236 33 236 30 235 30

C234 29 234 28 234 27

C234 25 235 25 238 25

C239 25 241 25 241 26

C241 27 242 27 243 26

C246 24 249 25 250 27

C251 28 251 32 251 36

C251 40 251 43 252 43

C253 43 253 44 253 45

C253 47 252 47 250 47

L246 47

L246 38

C246 30 245 30 244 30

C242 30 242 30 242 38

L242 47

L238 47

C235 47 234 47 234 45

Z

M311 45

C311 44 311 43 312 43

C313 43 313 38 313 31

C313 23 313 18 312 18

C311 18 311 17 311 16

C311 14 312 14 315 14

L318 14

L318 21

C318 27 318 27 320 26

C323 24 326 25 327 27

C328 28 328 32 328 36

C328 40 328 43 329 43

C330 43 330 44 330 45

C330 47 329 47 327 47

L323 47

L323 39

C323 30 322 29 320 30

C318 30 318 32 318 37

C318 40 318 43 319 43

C320 43 320 44 320 45

C320 47 319 47 316 47

C312 47 311 47 311 45

Z

"/>

</svg>

